<svg width="720" height="512" viewBox="0 0 720 512" fill="none" xmlns="http://www.w3.org/2000/svg">
<rect width="720" height="512" fill="#F7F7F7"/>
<path d="M847.2 66C828.8 66 813.6 81.2 813.6 99.6C813.6 108 816.8 116 822 122L748.4 195.6C740.8 188.8 731.2 184.8 720 184.8C709.2 184.8 699.2 188.8 691.6 195.6L639.6 143.6C643.2 139.2 645.6 133.6 645.6 127.6C645.6 114 634.4 102.8 620.8 102.8C607.2 102.8 596 114 596 127.6C596 141.2 607.2 152.4 620.8 152.4C626.8 152.4 632.4 150 636.8 146.4L688.8 198.4C682 206 678 215.6 678 226.8C678 237.6 682 247.6 688.8 255.2L614.8 328.8C608.8 323.6 601.2 320.4 592.4 320.4C574 320.4 558.8 335.6 558.8 354C558.8 372.4 574 387.6 592.4 387.6C610.8 387.6 626 372.4 626 354C626 345.6 622.8 337.6 617.6 331.6L691.6 257.6C698.4 264 707.6 268 718 268.4V348.4C705.2 349.6 695.2 360 695.2 373.2C695.2 386.8 706.4 398 720 398C733.6 398 744.8 386.8 744.8 373.2C744.8 360 734.8 349.6 722 348.4V268.4C732 268 741.2 264 748.4 257.6L798.8 308C794.8 312.8 792.4 318.8 792.4 325.6C792.4 340.4 804.4 352.4 819.2 352.4C834 352.4 846 340.4 846 325.6C846 310.8 834 298.8 819.2 298.8C812.4 298.8 806.4 301.2 801.6 305.2L751.2 254.8C758 247.2 762 237.6 762 226.4C762 215.2 758 205.6 751.2 198L825.2 124C831.2 129.2 838.8 132.4 847.6 132.4C866 132.4 881.2 117.2 881.2 98.8C880.8 80.8 865.6 66 847.2 66Z" fill="#115074"/>
<path d="M602.8 205.2C606.114 205.2 608.8 202.514 608.8 199.2C608.8 195.886 606.114 193.2 602.8 193.2C599.486 193.2 596.8 195.886 596.8 199.2C596.8 202.514 599.486 205.2 602.8 205.2Z" fill="#115074"/>
<path d="M790 244C793.314 244 796 241.314 796 238C796 234.686 793.314 232 790 232C786.686 232 784 234.686 784 238C784 241.314 786.686 244 790 244Z" fill="#115074"/>
<path d="M734.8 90C738.114 90 740.8 87.3137 740.8 84C740.8 80.6863 738.114 78 734.8 78C731.486 78 728.8 80.6863 728.8 84C728.8 87.3137 731.486 90 734.8 90Z" fill="#115074"/>
<path d="M708.8 166C712.114 166 714.8 163.314 714.8 160C714.8 156.686 712.114 154 708.8 154C705.486 154 702.8 156.686 702.8 160C702.8 163.314 705.486 166 708.8 166Z" fill="#115074"/>
<path d="M682 309.2C685.314 309.2 688 306.514 688 303.2C688 299.886 685.314 297.2 682 297.2C678.686 297.2 676 299.886 676 303.2C676 306.514 678.686 309.2 682 309.2Z" fill="#115074"/>
<path d="M772 344.8C775.314 344.8 778 342.114 778 338.8C778 335.486 775.314 332.8 772 332.8C768.686 332.8 766 335.486 766 338.8C766 342.114 768.686 344.8 772 344.8Z" fill="#115074"/>
<path d="M832 204C837.523 204 842 199.523 842 194C842 188.477 837.523 184 832 184C826.477 184 822 188.477 822 194C822 199.523 826.477 204 832 204Z" fill="#115074"/>
<path d="M622.8 258C628.323 258 632.8 253.523 632.8 248C632.8 242.477 628.323 238 622.8 238C617.277 238 612.8 242.477 612.8 248C612.8 253.523 617.277 258 622.8 258Z" fill="#115074"/>
<path d="M776 148C781.523 148 786 143.523 786 138C786 132.477 781.523 128 776 128C770.477 128 766 132.477 766 138C766 143.523 770.477 148 776 148Z" fill="#115074"/>
<path d="M682 110C687.523 110 692 105.523 692 100C692 94.4772 687.523 90 682 90C676.477 90 672 94.4772 672 100C672 105.523 676.477 110 682 110Z" fill="#115074"/>
<path d="M843.2 275.2C852.037 275.2 859.2 268.037 859.2 259.2C859.2 250.363 852.037 243.2 843.2 243.2C834.363 243.2 827.2 250.363 827.2 259.2C827.2 268.037 834.363 275.2 843.2 275.2Z" fill="#115074"/>
<path d="M646.8 226C655.637 226 662.8 218.837 662.8 210C662.8 201.163 655.637 194 646.8 194C637.963 194 630.8 201.163 630.8 210C630.8 218.837 637.963 226 646.8 226Z" fill="#115074"/>
<path d="M581.2 291.2C590.037 291.2 597.2 284.037 597.2 275.2C597.2 266.363 590.037 259.2 581.2 259.2C572.363 259.2 565.2 266.363 565.2 275.2C565.2 284.037 572.363 291.2 581.2 291.2Z" fill="#115074"/>
<path d="M394.2 546L384.4 546.2H356.4L346.6 546L337.2 577.2C334.4 577.867 330.4 578.2 325.2 578.2C320.133 578.2 316 577.6 312.8 576.4L311.8 575L356.4 440.4C361.333 439.733 366.667 439.4 372.4 439.4C378.133 439.4 383.133 439.8 387.4 440.6L431.2 575.2C427.333 577.467 422.667 578.6 417.2 578.6C411.867 578.6 408 577.6 405.6 575.6C403.333 573.6 401.4 569.8 399.8 564.2L394.2 546ZM353.2 524.8L362.2 524.6H379.4L387.8 524.8L381.8 504.4C377.267 489.2 373.667 476.267 371 465.6H369.8C368.6 471.333 365.667 482.6 361 499.4L353.2 524.8ZM507.4 484.8C511.133 479.867 516.667 477 524 476.2C525.867 477.533 527.667 479.533 529.4 482.2C531.133 484.867 532.2 487.333 532.6 489.6C528.867 492.8 527 498.333 527 506.2V562C527 573.6 526.067 583.2 524.2 590.8C522.333 598.4 519.533 604.467 515.8 609C512.067 613.533 507.333 616.667 501.6 618.4C496 620.267 489.4 621.2 481.8 621.2C468.467 621.2 456.4 618.933 445.6 614.4C445.6 611.2 446.2 607.733 447.4 604C448.733 600.267 450.333 597.333 452.2 595.2C460.6 599.333 469.6 601.4 479.2 601.4C494.133 601.4 501.6 593.467 501.6 577.6V569.8C494 575.8 485.8 578.8 477 578.8C465.267 578.8 456.4 574.2 450.4 565C444.533 555.8 441.6 543.133 441.6 527C441.6 518.867 442.6 511.6 444.6 505.2C446.733 498.8 449.533 493.4 453 489C456.6 484.467 460.733 481 465.4 478.6C470.067 476.2 475.067 475 480.4 475C491.333 475 500.333 478.267 507.4 484.8ZM501.6 548.4V503C495.867 497.667 490.333 495 485 495C479.667 495 475.533 497.8 472.6 503.4C469.667 509 468.2 517 468.2 527.4C468.2 537.8 469.533 545.467 472.2 550.4C475 555.2 478.6 557.6 483 557.6C490.067 557.6 496.267 554.533 501.6 548.4ZM548.445 489.8C548.979 487.4 550.045 484.867 551.645 482.2C553.379 479.533 555.112 477.533 556.845 476.2C567.645 477.533 575.045 483.533 579.045 494.2C584.112 482.333 592.579 476.4 604.445 476.4C608.845 476.4 612.845 476.867 616.445 477.8C616.445 487.133 614.312 495.267 610.045 502.2C608.045 501.533 604.979 501.067 600.845 500.8C593.112 500.8 586.845 504.933 582.045 513.2V577C578.045 577.667 573.712 578 569.045 578C564.512 578 560.112 577.667 555.845 577V510.4C555.845 500.933 553.379 494.067 548.445 489.8ZM664.319 498V577C662.319 577.4 660.185 577.667 657.919 577.8C655.785 577.933 653.585 578 651.319 578C649.052 578 646.785 577.933 644.519 577.8C642.385 577.667 640.252 577.4 638.119 577V507.4C638.119 500.067 635.119 496.4 629.119 496.4H626.519C625.719 493.467 625.319 490.4 625.319 487.2C625.319 484.267 625.719 481.2 626.519 478C629.585 477.733 632.385 477.533 634.919 477.4C637.585 477.133 639.852 477 641.719 477H645.119C651.119 477 655.785 478.867 659.119 482.6C662.585 486.333 664.319 491.467 664.319 498ZM634.119 439.2C637.185 437.467 641.585 436.6 647.319 436.6C650.652 436.6 653.319 436.867 655.319 437.4C657.452 437.933 658.985 438.6 659.919 439.4C660.852 440.067 661.452 441.4 661.719 443.4C661.985 445.4 662.119 447.467 662.119 449.6C661.719 456.4 660.852 460.133 659.519 460.8C658.319 461.467 654.185 462.133 647.119 462.8C639.652 462.533 635.252 461.533 633.919 459.8C632.719 458.067 632.119 454.667 632.119 449.6C632.119 445.733 632.785 442.267 634.119 439.2ZM770.55 495.4L770.35 480.6V440.4C773.817 439.733 778.217 439.4 783.55 439.4C789.017 439.4 793.617 439.733 797.35 440.4V577C793.483 577.667 788.883 578 783.55 578C778.35 578 773.95 577.667 770.35 577V532.4L770.55 517.6L759.95 517.8H731.75L720.95 517.6L721.15 532.4V577C717.683 577.667 713.217 578 707.75 578C702.283 578 697.817 577.667 694.35 577V440.4C697.817 439.733 702.283 439.4 707.75 439.4C713.217 439.4 717.683 439.733 721.15 440.4V480.6L720.95 495.4L731.75 495.2H759.95L770.55 495.4ZM896.483 486.2C905.949 495.667 910.683 509.4 910.683 527.4C910.683 535.4 909.683 542.667 907.683 549.2C905.683 555.6 902.749 561.067 898.883 565.6C895.149 570.133 890.483 573.667 884.883 576.2C879.283 578.6 872.949 579.8 865.883 579.8C858.816 579.8 852.483 578.6 846.883 576.2C841.416 573.667 836.749 570.133 832.883 565.6C829.149 561.067 826.283 555.6 824.283 549.2C822.283 542.667 821.283 535.4 821.283 527.4C821.283 511.267 825.149 498.533 832.883 489.2C840.616 479.733 851.616 475 865.883 475C878.416 475 888.616 478.733 896.483 486.2ZM865.883 494.6C854.016 494.6 848.083 505.533 848.083 527.4C848.083 549.133 854.016 560 865.883 560C877.883 560 883.883 549.133 883.883 527.4C883.883 505.533 877.883 494.6 865.883 494.6ZM1000.78 486.2C1010.25 495.667 1014.98 509.4 1014.98 527.4C1014.98 535.4 1013.98 542.667 1011.98 549.2C1009.98 555.6 1007.05 561.067 1003.18 565.6C999.446 570.133 994.78 573.667 989.18 576.2C983.58 578.6 977.246 579.8 970.18 579.8C963.113 579.8 956.78 578.6 951.18 576.2C945.713 573.667 941.046 570.133 937.18 565.6C933.446 561.067 930.58 555.6 928.58 549.2C926.58 542.667 925.58 535.4 925.58 527.4C925.58 511.267 929.446 498.533 937.18 489.2C944.913 479.733 955.913 475 970.18 475C982.713 475 992.913 478.733 1000.78 486.2ZM970.18 494.6C958.313 494.6 952.38 505.533 952.38 527.4C952.38 549.133 958.313 560 970.18 560C982.18 560 988.18 549.133 988.18 527.4C988.18 505.533 982.18 494.6 970.18 494.6ZM1082.48 578.8C1075.54 578.8 1068.68 577 1061.88 573.4V604C1061.88 610 1060.81 614.2 1058.68 616.6C1056.54 619 1052.88 620.2 1047.68 620.2H1037.48L1036.28 618.8V478L1037.48 476.6H1044.88C1051.94 476.6 1056.88 479.867 1059.68 486.4C1067.28 478.8 1076.48 475 1087.28 475C1098.21 475 1106.68 479.667 1112.68 489C1118.68 498.2 1121.68 510.867 1121.68 527C1121.68 535 1120.61 542.2 1118.48 548.6C1116.48 555 1113.68 560.467 1110.08 565C1106.61 569.4 1102.48 572.8 1097.68 575.2C1093.01 577.6 1087.94 578.8 1082.48 578.8ZM1080.08 496.2C1072.88 496.2 1066.81 499.667 1061.88 506.6V553C1067.74 556.867 1073.08 558.8 1077.88 558.8C1083.48 558.8 1087.74 556 1090.68 550.4C1093.61 544.667 1095.08 536.667 1095.08 526.4C1095.08 516 1093.68 508.4 1090.88 503.6C1088.08 498.667 1084.48 496.2 1080.08 496.2Z" fill="#115074"/>
</svg>
